<svg id="Layer_1" data-name="Layer 1" xmlns="http://www.w3.org/2000/svg" width="533.13" height="160.06" viewBox="0 0 533.13 160.06"><defs><style>.cls-1{fill:#282827;}</style></defs><polygon class="cls-1" points="151.09 97.89 151.09 150.62 142.16 150.62 142.16 97.89 124.07 97.89 124.07 93.47 169.27 93.47 169.27 97.89 151.09 97.89"/><polygon class="cls-1" points="508.45 97.89 508.45 150.62 499.52 150.62 499.52 97.89 481.43 97.89 481.43 93.47 526.62 93.47 526.62 97.89 508.45 97.89"/><path class="cls-1" d="M387.66,151.68A29.64,29.64,0,1,1,417.38,122a29.32,29.32,0,0,1-29.72,29.64m-1.15-55.27c-10.32,0-18.58,10.24-18.58,24.16,0,11.62,7.28,27.1,20.87,27.1,10.32,0,18.59-10.32,18.59-24.16,0-11.62-7.29-27.1-20.88-27.1"/><path class="cls-1" d="M320.13,9.44H303.28V66.59h16.85c18.92,0,31.2-12,31.2-28.57S340.11,9.44,320.13,9.44m-.81,53.06h-7.21v-49h7.21c13.51,0,22.18,10.15,22.18,24.48S332.09,62.5,319.32,62.5"/><path class="cls-1" d="M32.63,35.89C40.08,34,44.66,29,44.66,23c0-7.53-6.38-13.59-16.37-13.59H10.84V66.59h18c11.22,0,19.81-6.55,19.81-15.72,0-8.27-5.89-14.33-16-15M19.77,13.54h4.59c6.05,0,10.89,3.6,10.89,10.48A10.52,10.52,0,0,1,24.68,34.5H19.77Zm6.31,48.88H19.77V38.67h6.31c6.87,0,12.85,4.75,12.85,11.88S32.87,62.42,26.08,62.42"/><polygon class="cls-1" points="108.48 62.15 108.48 62.09 108.41 62.09 108.41 9.44 99.49 9.44 99.49 66.59 134.86 66.59 134.86 62.15 108.48 62.15"/><polygon class="cls-1" points="66.4 62.17 66.4 39.25 84.17 39.25 84.17 34.78 66.45 34.78 66.45 34.74 66.4 34.74 66.4 13.95 66.45 13.95 66.45 13.93 89.16 13.93 89.16 9.44 57.64 9.44 57.64 66.59 91.46 66.59 91.46 62.15 66.4 62.17"/><polygon class="cls-1" points="186.57 146.19 186.57 123.27 204.34 123.27 204.34 118.8 186.61 118.8 186.61 118.77 186.57 118.77 186.57 97.97 186.61 97.97 186.61 97.95 209.33 97.95 209.33 93.47 177.81 93.47 177.81 150.62 211.62 150.62 211.62 146.18 186.57 146.19"/><path class="cls-1" d="M222.25,39.17c7.05-1.81,12.29-7.78,12.29-14.5,0-8.27-7.87-15.23-18-15.23H196.39V66.59h9l0-53h8.35c6,0,10.8,5.32,10.8,11.62S219.22,37,213.16,37h-3l17.11,24.39c2.29,3.28,5.24,5.24,9.25,5.24h4.91Z"/><path class="cls-1" d="M338.86,123.19c7-1.8,12.29-7.78,12.29-14.5,0-8.27-7.87-15.22-18-15.22H313v57.15h9l0-53.06h8.35c6,0,10.81,5.32,10.81,11.63S335.83,121,329.78,121h-3l17.11,24.4c2.29,3.27,5.24,5.24,9.25,5.24H358Z"/><path class="cls-1" d="M246,123.19c7-1.8,12.28-7.78,12.28-14.5,0-8.27-7.86-15.22-18-15.22H220.08v57.15h9l0-53.06h8.35c6,0,10.8,5.32,10.8,11.63S242.92,121,236.86,121h-3L251,145.38c2.29,3.27,5.24,5.24,9.25,5.24h4.91Z"/><polygon class="cls-1" points="369.5 62.17 369.5 39.25 387.27 39.25 387.27 34.78 369.54 34.78 369.54 34.74 369.5 34.74 369.5 13.95 369.54 13.95 369.54 13.93 392.26 13.93 392.26 9.44 360.74 9.44 360.74 66.59 394.56 66.59 394.56 62.15 369.5 62.17"/><polygon class="cls-1" points="281.77 150.62 281.77 123.27 299.54 123.27 299.54 118.8 281.81 118.8 281.81 118.77 281.77 118.77 281.77 97.97 281.81 97.97 281.81 97.95 304.54 97.95 304.54 93.47 273.01 93.47 273.01 150.62 281.77 150.62"/><path class="cls-1" d="M176.45,62a21.57,21.57,0,0,1-8.19,1.47c-12.94,0-23.58-11.3-23.58-25.46s10.15-25.55,23.25-25.55c4.6,0,11,2,14.82,6V11.25a47.68,47.68,0,0,0-16.29-2.87c-17.11,0-31.6,11.95-31.6,29.64,0,17.52,14.49,29.64,31.52,29.64,7.86,0,14.9-2,19-4.1l0-20.63h-9Z"/><path class="cls-1" d="M270.2,9.44,246.41,66.59h4.79L258,50.22h21.53l5.08,12.28a6.73,6.73,0,0,0,6.14,4.09H296L272.38,9.44ZM259.75,46.13l9.09-21.78,9,21.78Z"/><path class="cls-1" d="M102.91,93.47l-23.78,57.1h4.79l6.83-16.37h21.54l5.07,12.28a6.74,6.74,0,0,0,6.14,4.09h5.24l-23.62-57.1ZM92.47,130.11l9.09-21.78,9,21.78Z"/><path class="cls-1" d="M80.77,93.47l-.86,2.06s0,.1,0,.15l-16.7,40L47.36,97.48a6.68,6.68,0,0,0-6.22-4H36l7.62,18.42-9.91,23.82L17.89,97.48a6.69,6.69,0,0,0-6.22-4H6.51l23.62,57.1h2.21L46.05,117.7l13.56,32.87h2.2L84.54,95.92a1.63,1.63,0,0,1,.09-.19l.93-2.26Z"/><polygon class="cls-1" points="473.05 150.57 473.05 93.47 468.55 93.47 468.55 134.57 432.11 93.47 424.99 93.47 424.99 150.62 429.49 150.62 429.49 103.78 471.05 150.57 473.05 150.57"/></svg>