<?xml version="1.0" encoding="UTF-8"?> <svg xmlns="http://www.w3.org/2000/svg" width="146" height="52" viewBox="0 0 146 52" fill="none"><g clip-path="url(#clip0_806_39)"><path d="M26.4295 0C11.8334 0 0 11.6382 0 25.998C0 40.3578 11.8334 52 26.4295 52C41.0256 52 52.861 40.3598 52.861 25.998C52.861 11.6362 41.0297 0 26.4295 0ZM43.9506 43.233C39.2714 47.8377 33.0497 50.3715 26.4295 50.3715C19.8093 50.3715 13.5896 47.8357 8.90843 43.233C4.22929 38.6302 1.6494 32.5101 1.6494 25.998C1.6494 19.4859 4.22724 13.3677 8.90843 8.76298C13.5896 4.16024 19.8134 1.62449 26.4295 1.62449C33.0456 1.62449 39.2714 4.16226 43.9506 8.765C48.6297 13.3698 51.2075 19.4899 51.2075 26C51.2075 32.5101 48.6297 38.6323 43.9506 43.235" fill="#141414"></path><path d="M41.9064 13.8137L37.3731 18.7195C36.303 17.1637 34.9 15.8504 33.263 14.8745L39.9653 7.54811C39.5134 7.22482 39.0513 6.92175 38.5809 6.63281L26.4332 19.9096L14.2815 6.63483C13.8111 6.92175 13.3489 7.22684 12.897 7.55013L19.5994 14.8765C17.9829 15.8383 16.5923 17.1334 15.5283 18.663L12.1452 14.9695C12.1452 14.9695 12.1452 14.9695 12.1452 14.9654L11.0176 13.739C8.25898 17.089 6.60547 21.3543 6.60547 26.0035C6.60547 31.077 8.57736 35.7 11.8063 39.1692L12.9237 37.9508C10.0255 34.7826 8.25487 30.5921 8.25487 26.0035C8.25487 22.4333 9.32709 19.1095 11.1655 16.3151L26.4271 32.9945L41.6887 16.3151C43.5271 19.1075 44.5993 22.4333 44.5993 26.0035C44.5993 30.5921 42.8287 34.7826 39.9304 37.9508L41.0478 39.1692C44.2788 35.7 46.2507 31.077 46.2507 26.0035C46.2507 21.3907 44.6219 17.1536 41.9023 13.8157M16.6683 19.9116C17.685 18.3417 19.0797 17.0324 20.725 16.1111L26.4271 22.3423L32.1291 16.1111C33.7929 17.0445 35.202 18.372 36.2187 19.9682L26.4271 30.5658L16.6683 19.9116Z" fill="#141414"></path><path d="M26.4318 14.6225C27.2555 14.6225 28.0586 14.7114 28.833 14.873L30.0901 13.5051C28.9275 13.1778 27.7012 13 26.4318 13C25.1624 13 23.9341 13.1778 22.7715 13.5051L24.0286 14.873C24.8029 14.7114 25.6061 14.6225 26.4298 14.6225" fill="#141414"></path><path d="M37.613 23.1035C37.8595 24.0289 37.993 24.9967 37.993 25.9969C37.993 32.2706 32.8065 37.3724 26.4287 37.3724C23.2572 37.3724 20.3795 36.1095 18.2905 34.0688L17.8386 33.5778L17.8263 33.5879C15.9879 31.5735 14.8664 28.9104 14.8664 25.9948C14.8664 24.9947 14.9999 24.0269 15.2464 23.1015L13.9565 21.6992C13.4779 23.0429 13.2129 24.4896 13.2129 25.9948C13.2129 29.6176 14.7185 32.8929 17.1485 35.2488L29.3927 48.56C30.0397 48.4791 30.6867 48.3721 31.3214 48.2367L22.1912 38.3099C23.5201 38.7544 24.9456 38.9969 26.4266 38.9969C33.7247 38.9969 39.6424 33.1757 39.6424 25.9969C39.6424 24.4916 39.3795 23.0449 38.8988 21.7012L37.6089 23.1035H37.613Z" fill="#141414"></path><path d="M89.9071 19.2557C90.0098 19.1931 90.1023 19.0961 90.1824 18.9728C90.2625 18.8476 90.3077 18.6677 90.3159 18.4333C90.3077 18.205 90.2645 18.0313 90.1824 17.906C90.1023 17.7848 90.0098 17.6918 89.9071 17.6312C89.7859 17.5544 89.6504 17.514 89.5004 17.5039H87.584V19.3951H89.5004C89.6504 19.3749 89.7859 19.3284 89.9071 19.2537V19.2557Z" fill="#141414"></path><path d="M90.3446 29.6391C90.2234 29.5624 90.0879 29.5199 89.9379 29.5078H88.0215V31.4031H89.9379C89.9379 31.4031 89.9913 31.395 90.0755 31.3808C90.1598 31.3667 90.2542 31.3283 90.3549 31.2697C90.4576 31.2091 90.55 31.1161 90.6301 30.9889C90.7102 30.8636 90.7513 30.6838 90.7513 30.4474C90.7513 30.211 90.7102 30.0372 90.626 29.9139C90.5418 29.7907 90.4453 29.6977 90.3426 29.6371L90.3446 29.6391Z" fill="#141414"></path><path d="M131.344 30.0212C131.268 29.9201 131.175 29.8231 131.062 29.7363C130.949 29.6514 130.816 29.5766 130.664 29.5181C130.51 29.4574 130.331 29.4211 130.126 29.4069V29.3867L130.116 29.4069C129.914 29.419 129.736 29.4574 129.59 29.5181C129.44 29.5787 129.308 29.6514 129.195 29.7363C129.082 29.8231 128.99 29.9201 128.91 30.0232C128.832 30.1282 128.77 30.2353 128.723 30.3364C128.6 30.5909 128.532 30.8678 128.52 31.1688V32.7448C128.532 33.0701 128.6 33.3671 128.723 33.6359C128.768 33.749 128.832 33.8642 128.91 33.9733C128.99 34.0864 129.082 34.1875 129.195 34.2784C129.308 34.3713 129.438 34.4501 129.59 34.5148C129.738 34.5774 129.916 34.6158 130.116 34.63L130.126 34.638V34.63C130.327 34.6158 130.506 34.5774 130.66 34.5148C130.814 34.4522 130.949 34.3713 131.06 34.2784C131.173 34.1854 131.266 34.0864 131.342 33.9733C131.416 33.8642 131.479 33.751 131.531 33.6359C131.654 33.3671 131.722 33.0701 131.736 32.7448V31.1688C131.722 30.8678 131.654 30.5909 131.531 30.3364C131.479 30.2313 131.416 30.1242 131.342 30.0212H131.344Z" fill="#141414"></path><path d="M141.29 29.6585C141.167 29.5818 141.031 29.5414 140.881 29.5312H138.967V31.4245H140.881C141.031 31.4043 141.167 31.3578 141.29 31.283C141.393 31.2204 141.485 31.1234 141.565 31.0002C141.646 30.8749 141.691 30.6951 141.697 30.4607C141.689 30.2324 141.646 30.0586 141.565 29.9333C141.485 29.8121 141.393 29.7192 141.29 29.6585Z" fill="#141414"></path><path d="M94.7967 26.0016V13.7734H62.7227V38.2277H146V25.9996H94.7967V26.0016ZM86.3812 16.3112H89.5814C89.7499 16.3112 89.945 16.3375 90.1689 16.388C90.3907 16.4385 90.6023 16.5355 90.8016 16.683C91.0029 16.8305 91.1713 17.0426 91.311 17.3194C91.4486 17.5963 91.5225 17.9599 91.5307 18.4065V18.5136C91.5225 18.9702 91.4506 19.3299 91.311 19.6026C91.1713 19.8754 91.0029 20.0855 90.8016 20.233C90.6003 20.3805 90.3887 20.4755 90.1689 20.522C89.9471 20.5664 89.7519 20.5927 89.5814 20.5927H87.5849V23.6699H86.371L86.3792 16.3132L86.3812 16.3112ZM77.3372 16.3112L78.9476 21.7605L80.5703 16.3112H81.7596L79.5618 23.6558H78.3561L76.1479 16.3112H77.3372ZM65.9105 16.3011H67.1163L68.7287 18.9601L70.335 16.3011H71.5387V23.6457H70.335V18.4428L68.7287 21.1382L67.1163 18.4327V23.6437H65.9105V16.2991V16.3011ZM71.5366 35.6718H70.3329L68.7267 33.0148L67.1142 35.6718H65.9085V28.3272H67.1142V33.5401L68.7267 30.8327L70.3329 33.5462V28.3252H71.5366V35.6698V35.6718ZM81.9897 33.0168C81.9568 33.53 81.8418 33.9907 81.6508 34.4009C81.5686 34.5726 81.4638 34.7403 81.3365 34.906C81.2071 35.0717 81.051 35.2172 80.8682 35.3465C80.6812 35.4778 80.4656 35.5829 80.215 35.6637C79.9644 35.7445 79.6748 35.787 79.3379 35.787H79.0257C78.6929 35.787 78.3992 35.7445 78.1486 35.6637C77.8959 35.5829 77.6782 35.4778 77.4913 35.3465C77.3044 35.2172 77.1462 35.0717 77.0168 34.906C76.8854 34.7403 76.7827 34.5726 76.7025 34.4009C76.5095 33.9907 76.3985 33.53 76.3739 33.0168V30.8226C76.4006 30.3336 76.5136 29.8992 76.7149 29.5234C76.795 29.3617 76.9038 29.2021 77.0291 29.0445C77.1585 28.8869 77.3126 28.7455 77.5016 28.6222C77.6885 28.4969 77.9062 28.4 78.1589 28.3252C78.4095 28.2525 78.6991 28.2161 79.0359 28.2161H79.3297C79.6604 28.2161 79.9541 28.2525 80.2068 28.3252C80.4574 28.4 80.6771 28.4969 80.8661 28.6222C81.053 28.7455 81.2112 28.8869 81.3385 29.0425C81.4659 29.2001 81.5706 29.3597 81.6528 29.5234C81.8479 29.9032 81.9609 30.3356 81.9917 30.8226V33.0168H81.9897ZM91.6417 32.3056C91.7218 32.4188 91.7998 32.5743 91.8656 32.7724C91.9354 32.9724 91.9683 33.2209 91.9683 33.53V35.6738H90.7646V33.53H90.7543C90.7543 33.2957 90.7132 33.1158 90.629 32.9906C90.5448 32.8673 90.4483 32.7744 90.3456 32.7178C90.2244 32.641 90.0888 32.6006 89.9389 32.5865H88.0224V35.6738H86.8188V28.3272H90.019C90.1874 28.3272 90.3846 28.3515 90.6126 28.3939C90.8447 28.4404 91.0542 28.5394 91.2535 28.6909C91.4506 28.8424 91.617 29.0566 91.7567 29.3334C91.8964 29.6102 91.9662 29.984 91.9662 30.4488C91.9662 30.7114 91.9374 30.9337 91.8779 31.1236C91.8204 31.3095 91.7526 31.4651 91.6725 31.5883C91.5944 31.7075 91.5205 31.8025 91.4506 31.8651C91.3787 31.9278 91.3336 31.9641 91.3151 31.9722V32.0106C91.4363 32.0753 91.5472 32.1743 91.6396 32.3036L91.6417 32.3056ZM102.228 35.6799H100.914L99.3731 33.1078L98.2619 34.9808V35.6799H97.0479V28.3353H98.2619V32.8855L100.947 28.3272H102.267L100.032 31.9803L102.228 35.6799ZM111.78 33.4997V33.526C111.771 33.9806 111.699 34.3484 111.56 34.6272C111.42 34.908 111.252 35.1242 111.055 35.2798C110.859 35.4334 110.648 35.5364 110.424 35.589C110.2 35.6435 110.001 35.6698 109.83 35.6698H106.862V34.506L109.748 34.514C109.898 34.4898 110.034 34.4373 110.155 34.3585C110.258 34.2817 110.354 34.1827 110.438 34.0493C110.523 33.918 110.564 33.7382 110.564 33.5058C110.564 33.2734 110.523 33.0936 110.438 32.9683C110.354 32.8451 110.258 32.7562 110.155 32.7037C110.034 32.641 109.9 32.6026 109.758 32.5905H108.575C108.399 32.5905 108.197 32.5683 107.973 32.5178C107.752 32.4693 107.538 32.3662 107.337 32.2127C107.135 32.0571 106.967 31.8389 106.827 31.56C106.69 31.2772 106.62 30.9054 106.62 30.4467V30.4083C106.62 29.9537 106.69 29.5921 106.827 29.3193C106.967 29.0445 107.137 28.8323 107.337 28.6828C107.538 28.5333 107.752 28.4383 107.969 28.3939C108.191 28.3474 108.386 28.3252 108.563 28.3252H111.527V29.5032H108.647C108.497 29.5092 108.362 29.5516 108.238 29.6264C108.136 29.685 108.041 29.7759 107.957 29.8992C107.875 30.0224 107.83 30.2002 107.83 30.4286C107.83 30.6569 107.873 30.8428 107.957 30.968C108.041 31.0973 108.136 31.1903 108.238 31.259C108.362 31.3358 108.501 31.3822 108.657 31.4024H109.836C110.005 31.4024 110.2 31.4247 110.43 31.4691C110.654 31.5156 110.866 31.6106 111.063 31.754C111.26 31.8975 111.424 32.1096 111.56 32.3804C111.693 32.6531 111.765 33.0249 111.778 33.4876V33.4957L111.78 33.4997ZM122.461 35.6718H121.259V32.5945H118.069V35.6718H116.865V28.3272H118.069V31.4045H121.259V28.3272H122.461V35.6718ZM132.934 33.0168C132.901 33.53 132.786 33.9907 132.595 34.4009C132.513 34.5726 132.408 34.7403 132.281 34.906C132.152 35.0717 131.996 35.2172 131.813 35.3465C131.626 35.4778 131.412 35.5829 131.16 35.6637C130.909 35.7445 130.619 35.787 130.283 35.787H129.97C129.638 35.787 129.344 35.7445 129.093 35.6637C128.839 35.5829 128.623 35.4778 128.434 35.3465C128.247 35.2172 128.089 35.0717 127.959 34.906C127.828 34.7403 127.725 34.5726 127.645 34.4009C127.452 33.9907 127.341 33.53 127.316 33.0168V30.8226C127.343 30.3336 127.456 29.8992 127.657 29.5234C127.738 29.3617 127.846 29.2021 127.972 29.0445C128.101 28.8869 128.255 28.7455 128.444 28.6222C128.631 28.4969 128.849 28.4 129.101 28.3252C129.352 28.2525 129.642 28.2161 129.978 28.2161H130.272C130.603 28.2161 130.897 28.2525 131.149 28.3252C131.4 28.4 131.62 28.4969 131.809 28.6222C131.996 28.7455 132.154 28.8869 132.281 29.0425C132.408 29.2001 132.513 29.3597 132.595 29.5234C132.791 29.9032 132.903 30.3356 132.934 30.8226V33.0168ZM142.913 30.4609V30.5377C142.905 30.9943 142.833 31.3539 142.693 31.6267C142.555 31.8995 142.385 32.1096 142.186 32.2571C141.982 32.4046 141.773 32.4996 141.553 32.544C141.331 32.5885 141.136 32.6148 140.964 32.6148H138.969V35.692H137.755L137.763 28.3373H140.964C141.132 28.3373 141.327 28.3636 141.551 28.4141C141.773 28.4646 141.984 28.5616 142.186 28.7091C142.387 28.8566 142.555 29.0687 142.693 29.3456C142.833 29.6224 142.905 29.9861 142.913 30.4326V30.4609Z" fill="#141414"></path><path d="M80.4004 30.0212C80.3244 29.9201 80.2299 29.8231 80.119 29.7363C80.006 29.6514 79.8725 29.5766 79.7205 29.5181C79.5685 29.4574 79.3898 29.4211 79.1844 29.4069V29.3867L79.1741 29.4069C78.9708 29.419 78.7941 29.4574 78.6483 29.5181C78.4963 29.5787 78.3669 29.6514 78.2539 29.7363C78.1409 29.8231 78.0485 29.9201 77.9684 30.0232C77.8903 30.1282 77.8287 30.2353 77.7815 30.3364C77.6582 30.5909 77.5904 30.8678 77.5781 31.1688V32.7448C77.5904 33.0701 77.6582 33.3671 77.7815 33.6359C77.8267 33.749 77.8903 33.8642 77.9684 33.9733C78.0464 34.0864 78.1409 34.1875 78.2539 34.2784C78.3669 34.3713 78.4963 34.4501 78.6483 34.5148C78.7962 34.5774 78.9728 34.6158 79.1741 34.63L79.1844 34.638V34.63C79.3857 34.6158 79.5644 34.5774 79.7185 34.5148C79.8725 34.4522 80.0081 34.3713 80.119 34.2784C80.2299 34.1854 80.3244 34.0864 80.4004 33.9733C80.4743 33.8642 80.538 33.751 80.5894 33.6359C80.7126 33.3671 80.7804 33.0701 80.7948 32.7448V31.1688C80.7804 30.8678 80.7126 30.5909 80.5894 30.3364C80.538 30.2313 80.4743 30.1242 80.4004 30.0212Z" fill="#141414"></path></g><defs><clipPath id="clip0_806_39"><rect width="146" height="52" fill="#141414"></rect></clipPath></defs></svg> 